<?xml version="1.0" encoding="UTF-8" standalone="no"?>
<svg
   xmlns:dc="http://purl.org/dc/elements/1.1/"
   xmlns:cc="http://creativecommons.org/ns#"
   xmlns:rdf="http://www.w3.org/1999/02/22-rdf-syntax-ns#"
   xmlns:svg="http://www.w3.org/2000/svg"
   xmlns="http://www.w3.org/2000/svg"
   viewBox="0 0 269.33334 77.333336"
   height="77.333336"
   width="269.33334"
   xml:space="preserve"
   id="svg2"
   version="1.1"><metadata
     id="metadata8"><rdf:RDF><cc:Work
         rdf:about=""><dc:format>image/svg+xml</dc:format><dc:type
           rdf:resource="http://purl.org/dc/dcmitype/StillImage" /></cc:Work></rdf:RDF></metadata><defs
     id="defs6" /><g
     transform="matrix(1.3333333,0,0,-1.3333333,0,77.333333)"
     id="g10"><g
       transform="scale(0.1)"
       id="g12"><path
         id="path14"
         style="fill:#ffffff;fill-opacity:1;fill-rule:evenodd;stroke:none"
         d="m 386.961,575.672 c -13,5.387 -27.953,2.406 -37.898,-7.535 L 240.336,459.414 v 84.129 c 0,14.062 -8.477,26.746 -21.473,32.129 -13,5.387 -27.953,2.406 -37.898,-7.535 L 12.8828,400.047 C 6.35547,393.523 2.69922,384.68 2.69922,375.453 v -168.09 c 0,-19.207 15.57028,-34.781 34.77738,-34.781 19.207,0 34.7773,15.574 34.7773,34.781 l -0.0039,153.692 98.535,98.523 v -84.125 -168.09 c 0,-19.207 15.57,-34.781 34.781,-34.781 19.207,0 34.778,15.574 34.778,34.781 v 153.692 l 98.527,98.523 V 207.371 c 0,-19.207 15.574,-34.785 34.781,-34.785 19.207,0 34.782,15.578 34.782,34.785 v 336.172 c 0,14.062 -8.477,26.746 -21.473,32.129" /><path
         id="path16"
         style="fill:#ffffff;fill-opacity:1;fill-rule:evenodd;stroke:none"
         d="m 1130.58,575.672 c -13,5.387 -27.97,2.406 -37.91,-7.535 L 983.945,459.414 v 84.129 c 0,14.062 -8.476,26.746 -21.465,32.129 -12.996,5.387 -27.96,2.406 -37.898,-7.535 L 756.496,400.047 c -6.527,-6.524 -10.187,-15.367 -10.187,-24.594 v -168.09 c 0,-19.207 15.562,-34.781 34.769,-34.781 19.211,0 34.785,15.574 34.785,34.781 v 153.692 l 98.528,98.523 v -84.125 -168.09 c 0,-19.207 15.57,-34.781 34.777,-34.781 19.207,0 34.777,15.574 34.777,34.781 v 153.692 l 98.535,98.523 V 207.371 c 0,-19.207 15.57,-34.785 34.78,-34.785 19.21,0 34.78,15.578 34.78,34.785 v 336.172 c 0,14.062 -8.48,26.746 -21.46,32.129" /><path
         id="path18"
         style="fill:#ffffff;fill-opacity:1;fill-rule:evenodd;stroke:none"
         d="m 1692.79,410.23 h -84.13 l 108.72,108.723 c 13.58,13.582 13.58,35.602 0,49.184 -13.59,13.574 -35.6,13.574 -49.18,0 L 1559.47,459.414 v 84.129 c 0,19.207 -15.57,34.785 -34.77,34.785 -19.22,0 -34.78,-15.578 -34.78,-34.785 V 207.371 c 0,-19.207 15.56,-34.777 34.78,-34.777 19.19,0 34.77,15.57 34.77,34.777 v 133.305 h 98.54 V 207.363 c 0,-19.211 15.56,-34.781 34.78,-34.781 19.21,0 34.78,15.57 34.78,34.781 v 168.098 c -0.01,19.207 -15.58,34.769 -34.78,34.769" /><path
         id="path20"
         style="fill:#ffffff;fill-opacity:1;fill-rule:evenodd;stroke:none"
         d="m 1993.86,575.672 c -13.01,5.387 -27.97,2.406 -37.91,-7.535 l -168.09,-168.09 c -6.51,-6.524 -10.17,-15.367 -10.17,-24.594 v -168.09 c 0,-19.215 15.56,-34.777 34.77,-34.777 19.21,0 34.78,15.562 34.78,34.777 v 49.266 h 98.54 v -49.266 c 0,-19.215 15.56,-34.777 34.78,-34.777 19.21,0 34.78,15.562 34.78,34.777 v 336.172 c -0.02,14.07 -8.48,26.762 -21.48,32.137 z M 1847.23,326.184 v 34.859 l 98.55,98.535 V 326.184 h -98.55" /><path
         id="path22"
         style="fill:#ffffff;fill-opacity:1;fill-rule:evenodd;stroke:none"
         d="m 1418.34,575.672 c -13.01,5.387 -27.96,2.406 -37.91,-7.535 l -168.09,-168.09 c -6.52,-6.524 -10.17,-15.367 -10.17,-24.594 v -168.09 c 0,-19.215 15.56,-34.777 34.78,-34.777 19.2,0 34.77,15.562 34.77,34.777 v 49.266 h 98.53 v -49.266 c 0,-19.215 15.57,-34.777 34.79,-34.777 19.21,0 34.78,15.562 34.78,34.777 v 336.172 c -0.02,14.07 -8.49,26.762 -21.48,32.137 z M 1271.71,326.184 v 34.859 l 98.54,98.535 V 326.184 h -98.54" /><path
         id="path24"
         style="fill:#ffffff;fill-opacity:1;fill-rule:evenodd;stroke:none"
         d="m 674.711,575.672 c -12.988,5.387 -27.949,2.406 -37.895,-7.535 L 468.734,400.047 c -6.519,-6.524 -10.187,-15.367 -10.187,-24.594 v -168.09 c 0,-19.215 15.57,-34.777 34.781,-34.777 19.207,0 34.777,15.562 34.777,34.777 v 49.266 h 98.532 v -49.266 c 0,-19.215 15.57,-34.777 34.777,-34.777 19.207,0 34.781,15.562 34.781,34.777 v 336.172 c 0,14.07 -8.484,26.762 -21.484,32.137 z M 528.102,326.184 v 34.859 l 98.535,98.535 V 326.184 h -98.535" /><path
         id="path26"
         style="fill:#ffffff;fill-opacity:1;fill-rule:evenodd;stroke:none"
         d="m 1527.48,80.6797 c 27.04,0 40.04,-21.293 40.04,-39.5 0,-18.2188 -13,-39.50392 -40.04,-39.50392 -27.04,0 -40.02,21.28512 -40.02,39.50392 0,18.207 12.97,39.5 40.02,39.5 z m 0,-58.2344 c 9.64,0 17.81,7.8945 17.81,18.7344 0,10.8359 -8.17,18.75 -17.81,18.75 -9.63,0 -17.8,-7.9141 -17.8,-18.75 0,-10.8399 8.16,-18.7344 17.8,-18.7344" /><path
         id="path28"
         style="fill:#ffffff;fill-opacity:1;fill-rule:evenodd;stroke:none"
         d="m 1658.42,3.96094 h -21.29 l -26.64,74.31246 h 23.02 l 14.19,-46.3281 h 0.26 l 14.21,46.3281 h 23.03 L 1658.42,3.96094" /><path
         id="path30"
         style="fill:#ffffff;fill-opacity:1;fill-rule:evenodd;stroke:none"
         d="m 1769.54,80.6797 c 27.03,0 40.03,-21.293 40.03,-39.5 0,-18.2188 -12.99,-39.50392 -40.03,-39.50392 -27.04,0 -40.03,21.28512 -40.03,39.50392 -0.01,18.207 12.99,39.5 40.03,39.5 z m 0,-58.2344 c 9.64,0 17.8,7.8945 17.8,18.7344 0,10.8359 -8.16,18.75 -17.8,18.75 -9.64,0 -17.81,-7.9141 -17.81,-18.75 0,-10.8399 8.17,-18.7344 17.81,-18.7344" /><path
         id="path32"
         style="fill:#ffffff;fill-opacity:1;fill-rule:evenodd;stroke:none"
         d="m 1862.29,3.96484 h 22.22 V 103.031 h -22.22 V 3.96484" /><path
         id="path34"
         style="fill:#ffffff;fill-opacity:1;fill-rule:evenodd;stroke:none"
         d="m 1977.27,80.6797 c 27.03,0 40.03,-21.293 40.03,-39.5 0,-18.2188 -12.99,-39.50392 -40.03,-39.50392 -27.04,0 -40.03,21.28512 -40.03,39.50392 0,18.207 12.99,39.5 40.03,39.5 z m 0,-58.2344 c 9.64,0 17.8,7.8945 17.8,18.7344 0,10.8359 -8.16,18.75 -17.8,18.75 -9.64,0 -17.81,-7.9141 -17.81,-18.75 0,-10.8399 8.17,-18.7344 17.81,-18.7344" /><path
         id="path36"
         style="fill:#ffffff;fill-opacity:1;fill-rule:evenodd;stroke:none"
         d="m 1345.43,92.2539 h 12.56 V 74.9336 c 4.46,4.7734 10.44,4.7734 12.17,4.7734 8.77,0 20.63,-6.2695 20.63,-22.1406 0,-15.1289 -10.5,-22.6797 -21.16,-22.6797 -5.89,0 -10.43,2.8711 -12.02,5.8985 h -0.16 v -4.461 h -12.03 v 55.9297 z m 22.31,-45.6523 c 6.42,0 10.5,5.2031 10.5,10.7304 0,5.4453 -4.08,10.6641 -10.27,10.6641 -6.66,0 -10.44,-5.3672 -10.44,-10.5898 0,-5.8204 3.93,-10.8047 10.21,-10.8047" /><path
         id="path38"
         style="fill:#ffffff;fill-opacity:1;fill-rule:evenodd;stroke:none"
         d="m 1441.58,78.2813 -21.01,-55.9415 h -13.31 l 6.65,16.0938 -15.57,39.8477 h 13.38 l 8.39,-24.3438 h 0.16 l 8,24.3438 h 13.31" /></g></g></svg>